<?xml version="1.0" encoding="UTF-8"?>
<svg width="19px" height="21px" viewBox="0 0 19 21" version="1.1" xmlns="http://www.w3.org/2000/svg" xmlns:xlink="http://www.w3.org/1999/xlink">
    <!-- Generator: Sketch 42 (36781) - http://www.bohemiancoding.com/sketch -->
    <title>Shape</title>
    <desc>Created with Sketch.</desc>
    <defs></defs>
    <g id="Page-1" stroke="none" stroke-width="1" fill="none" fill-rule="evenodd">
        <path d="M1,8.65 C1.2,8.83 1.43,9.05 1.68,9.32 C2.45,10.16 3.23,11.25 3.96,12.62 L4.02,12.72 C4.17,13.02 4.32,13.32 4.46,13.65 C5.03,14.95 5.44,16.32 5.72,17.71 C5.82,18.21 5.89,18.68 5.94,19.09 C5.98,19.33 5.99,19.49 6,19.59 L6.04,20.09 L7.04,19.99 L7,19.49 C7,19.39 6.97,19.21 6.94,18.95 C6.88,18.55 6.8,18.07 6.7,17.55 C6.4,16.11 5.97,14.65 5.38,13.29 C5.23,12.96 5.08,12.63 4.9,12.31 L4.85,12.21 C4.08,10.74 3.25,9.58 2.41,8.68 C2.21,8.42 1.99,8.21 1.81,8.04 L4.51,8.04 L4.51,7 L0,7 L0,7.5 L0.05,11 L0.05,11.5 L1.05,11.5 L1.05,11 L1,8.64 L1,8.65 Z M17.98,8.65 C17.78,8.83 17.54,9.05 17.28,9.32 C16.52,10.16 15.74,11.25 15.01,12.62 L14.99,12.72 C14.84,13.02 14.69,13.32 14.55,13.65 C14,14.93 13.59,16.32 13.32,17.7 C13.22,18.2 13.15,18.64 13.1,19.04 L13.05,19.54 L13.01,20.04 L12.01,19.96 L12.04,19.46 C12.04,19.36 12.07,19.16 12.1,18.92 C12.14,18.49 12.22,18.02 12.32,17.52 C12.62,16.06 13.02,14.62 13.62,13.24 C13.78,12.91 13.92,12.58 14.12,12.26 L14.16,12.16 C14.93,10.7 15.76,9.54 16.6,8.64 C16.84,8.38 17.06,8.17 17.24,8 L14.54,8 L14.54,7 L19,7 L19,7.5 L18.94,11 L18.94,11.5 L17.94,11.5 L17.94,11 L17.98,8.65 Z M10,2.7 L10,20 L9,20 L9,2.7 L7.35,4.36 L7,4.7 L6.3,4 L6.65,3.65 L9.15,1.15 L9.5,0.79 L9.85,1.11 L12.35,3.61 L12.71,3.96 L12.01,4.66 L11.69,4.3 L10,2.7 Z" id="Shape" fill="#FFFFFF" fill-rule="nonzero"></path>
    </g>
</svg>