<?xml version="1.0" encoding="UTF-8"?>
<svg width="155px" height="30px" viewBox="0 0 155 30" version="1.1" xmlns="http://www.w3.org/2000/svg" xmlns:xlink="http://www.w3.org/1999/xlink">
    <!-- Generator: Sketch 41.2 (35397) - http://www.bohemiancoding.com/sketch -->
    <title>Group</title>
    <desc>Created with Sketch.</desc>
    <defs></defs>
    <g id="Page-1" stroke="none" stroke-width="1" fill="none" fill-rule="evenodd">
        <g id="Group">
            <rect id="Rectangle-path" fill="#823A95" x="0" y="0" width="30" height="30" rx="15"></rect>
            <path d="M19.046,5 L24,6.996 L24,23.004 L19,25 L11.045,17.11 L6,21.01 L4,20.012 L4,9.988 L6,9.036 L11.045,12.982 L19.045,5 L19.046,5 Z M6,12.03 L6,18.107 L9,15.023 L6,12.029 L6,12.03 Z M13.818,15.023 L19,19.105 L19,10.94 L13.818,15.023 Z" id="Shape" fill="#FFFFFF"></path>
            <path d="M53.13,29 L53.13,19.05 L53.096,19.05 L49.026,29 L47.664,29 L43.551,19.112 L43.501,19.112 L43.501,29 L41.561,29 L41.561,16.396 L44.551,16.396 L48.371,25.871 L48.431,25.871 L52.361,16.401 L55.231,16.401 L55.231,29 L53.151,29 L53.13,29 Z M66.675,24.412 C66.675,25.872 66.253,27.037 65.409,27.91 C64.559,28.783 63.419,29.22 61.969,29.22 C60.579,29.22 59.469,28.805 58.649,27.976 C57.819,27.146 57.409,26.023 57.409,24.606 C57.409,23.111 57.829,21.934 58.669,21.072 C59.509,20.212 60.679,19.78 62.169,19.78 C63.569,19.78 64.669,20.192 65.459,21.015 C66.249,21.838 66.639,22.971 66.639,24.412 L66.675,24.412 Z M64.565,24.482 C64.565,23.486 64.345,22.73 63.902,22.215 C63.459,21.699 62.852,21.441 62.078,21.441 C61.281,21.441 60.658,21.711 60.206,22.251 C59.756,22.791 59.529,23.551 59.529,24.541 C59.529,25.501 59.749,26.241 60.199,26.771 C60.649,27.301 61.279,27.571 62.089,27.571 C62.899,27.571 63.519,27.311 63.929,26.791 C64.339,26.271 64.549,25.511 64.549,24.501 L64.565,24.482 Z M77.441,24.262 C77.441,25.769 77.081,26.972 76.341,27.872 C75.601,28.77 74.601,29.22 73.331,29.22 C72.231,29.22 71.381,28.77 70.781,27.866 L70.751,27.866 L70.751,29 L68.7,29 L68.7,15.676 L70.73,15.676 L70.73,21.441 L70.765,21.441 C71.48,20.341 72.475,19.781 73.753,19.781 C74.523,19.781 75.183,19.971 75.736,20.331 C76.29,20.701 76.713,21.221 77.006,21.891 C77.299,22.571 77.446,23.361 77.446,24.271 L77.441,24.262 Z M75.341,24.228 C75.341,23.354 75.141,22.672 74.741,22.18 C74.341,21.687 73.791,21.44 73.091,21.44 C72.381,21.44 71.811,21.69 71.371,22.188 C70.931,22.688 70.721,23.325 70.721,24.104 L70.721,25.291 C70.721,25.931 70.931,26.471 71.341,26.911 C71.761,27.351 72.281,27.571 72.901,27.571 C73.681,27.571 74.281,27.281 74.701,26.711 C75.131,26.141 75.351,25.321 75.351,24.241 L75.341,24.228 Z M81.761,16.818 C81.761,17.152 81.641,17.431 81.401,17.653 C81.161,17.876 80.871,17.987 80.521,17.987 C80.171,17.987 79.881,17.877 79.641,17.653 C79.401,17.431 79.281,17.153 79.281,16.818 C79.281,16.478 79.411,16.194 79.651,15.966 C79.901,15.736 80.191,15.623 80.531,15.623 C80.891,15.623 81.191,15.74 81.431,15.975 C81.671,16.209 81.791,16.49 81.791,16.818 L81.761,16.818 Z M79.47,29 L79.47,20 L81.5,20 L81.5,29 L79.47,29 Z M84.17,29 L84.17,15.676 L86.2,15.676 L86.2,29 L84.17,29 Z M90.284,25.098 C90.324,25.918 90.574,26.542 91.034,26.97 C91.489,27.397 92.144,27.61 92.994,27.61 C93.504,27.61 93.991,27.53 94.46,27.37 C94.93,27.208 95.34,27.002 95.69,26.75 L95.69,28.464 C95.35,28.687 94.894,28.868 94.32,29.009 C93.745,29.149 93.14,29.219 92.5,29.219 C91.135,29.219 90.077,28.809 89.327,27.989 C88.577,27.169 88.203,26.029 88.203,24.579 C88.203,23.619 88.388,22.779 88.76,22.049 C89.132,21.329 89.648,20.769 90.307,20.359 C90.967,19.959 91.691,19.759 92.482,19.759 C93.722,19.759 94.682,20.139 95.372,20.899 C96.062,21.659 96.402,22.709 96.402,24.059 L96.402,25.069 L90.282,25.069 L90.284,25.098 Z M94.392,23.568 C94.392,22.854 94.222,22.308 93.892,21.934 C93.552,21.559 93.082,21.371 92.482,21.371 C91.932,21.371 91.452,21.581 91.042,21.991 C90.637,22.401 90.382,22.931 90.276,23.581 L94.381,23.581 L94.392,23.568 Z M111.382,28.464 C110.952,28.698 110.412,28.884 109.762,29.018 C109.112,29.152 108.455,29.22 107.787,29.22 C106.567,29.22 105.497,28.96 104.577,28.442 C103.657,27.922 102.957,27.188 102.467,26.236 C101.982,25.284 101.737,24.189 101.737,22.953 C101.737,21.646 102.02,20.475 102.583,19.438 C103.146,18.4 103.933,17.598 104.943,17.034 C105.953,16.468 107.073,16.186 108.306,16.186 C108.829,16.186 109.376,16.229 109.946,16.316 C110.516,16.406 110.988,16.534 111.369,16.704 L111.369,18.831 C110.469,18.311 109.469,18.041 108.359,18.041 C107.499,18.041 106.729,18.241 106.049,18.631 C105.369,19.021 104.849,19.581 104.479,20.311 C104.109,21.041 103.919,21.881 103.919,22.841 C103.919,24.241 104.299,25.341 105.059,26.161 C105.819,26.981 106.839,27.381 108.109,27.381 C109.339,27.381 110.419,27.091 111.349,26.501 L111.349,28.491 L111.382,28.464 Z M114.902,25.098 C114.942,25.918 115.192,26.542 115.642,26.97 C116.1,27.397 116.752,27.61 117.602,27.61 C118.112,27.61 118.602,27.53 119.072,27.37 C119.542,27.208 119.952,27.002 120.302,26.75 L120.302,28.464 C119.962,28.687 119.506,28.868 118.932,29.009 C118.357,29.149 117.752,29.219 117.112,29.219 C115.747,29.219 114.689,28.809 113.939,27.989 C113.189,27.169 112.809,26.029 112.809,24.579 C112.809,23.619 112.989,22.779 113.359,22.049 C113.729,21.329 114.249,20.769 114.909,20.359 C115.569,19.959 116.289,19.759 117.079,19.759 C118.319,19.759 119.279,20.139 119.969,20.899 C120.659,21.659 120.999,22.709 120.999,24.059 L120.999,25.069 L114.869,25.069 L114.902,25.098 Z M119.002,23.568 C119.002,22.854 118.834,22.308 118.502,21.934 C118.166,21.559 117.697,21.371 117.094,21.371 C116.544,21.371 116.064,21.581 115.66,21.991 C115.256,22.401 115,22.931 114.895,23.581 L119,23.581 L119.002,23.568 Z M128.84,29 L128.84,23.946 C128.84,23.103 128.698,22.474 128.414,22.061 C128.129,21.651 127.671,21.441 127.038,21.441 C126.423,21.441 125.915,21.681 125.513,22.141 C125.113,22.611 124.911,23.191 124.911,23.891 L124.911,29 L122.881,29 L122.881,20 L124.911,20 L124.911,21.44 L124.951,21.44 C125.631,20.334 126.601,19.78 127.871,19.78 C128.831,19.78 129.571,20.085 130.091,20.694 C130.621,21.304 130.881,22.229 130.881,23.472 L130.881,29 L128.851,29 L128.84,29 Z M138.068,28.912 C137.945,28.982 137.728,29.052 137.414,29.119 C137.1,29.179 136.797,29.219 136.504,29.219 C134.74,29.219 133.858,28.269 133.858,26.369 L133.858,21.629 L132.364,21.629 L132.364,20 L133.858,20 L133.858,17.926 L135.898,17.302 L135.898,20 L138.068,20 L138.068,21.635 L135.898,21.635 L135.898,25.995 C135.898,26.563 136,26.965 136.205,27.203 C136.41,27.44 136.732,27.559 137.172,27.559 C137.289,27.559 137.437,27.529 137.616,27.479 C137.794,27.429 137.946,27.359 138.068,27.279 L138.068,28.899 L138.068,28.912 Z M141.074,25.098 C141.114,25.918 141.364,26.542 141.821,26.97 C142.281,27.397 142.941,27.61 143.781,27.61 C144.291,27.61 144.781,27.53 145.251,27.37 C145.721,27.208 146.131,27.002 146.481,26.75 L146.481,28.464 C146.141,28.687 145.691,28.868 145.111,29.009 C144.541,29.149 143.931,29.219 143.291,29.219 C141.931,29.219 140.871,28.809 140.121,27.989 C139.371,27.169 139.001,26.029 139.001,24.579 C139.001,23.619 139.191,22.779 139.561,22.049 C139.931,21.329 140.451,20.769 141.111,20.359 C141.771,19.959 142.501,19.759 143.291,19.759 C144.541,19.759 145.501,20.139 146.191,20.899 C146.881,21.659 147.231,22.709 147.231,24.059 L147.231,25.069 L141.101,25.069 L141.074,25.098 Z M145.179,23.568 C145.179,22.854 145.009,22.308 144.669,21.934 C144.329,21.559 143.859,21.371 143.259,21.371 C142.709,21.371 142.229,21.581 141.829,21.991 C141.419,22.401 141.169,22.931 141.059,23.581 L145.159,23.581 L145.179,23.568 Z M154.239,21.978 C154.129,21.901 153.959,21.831 153.719,21.768 C153.479,21.702 153.259,21.67 153.059,21.67 C152.469,21.67 151.989,21.922 151.629,22.426 C151.259,22.93 151.079,23.586 151.079,24.396 L151.079,29 L149.049,29 L149.049,20 L151.079,20 L151.079,21.75 L151.109,21.75 C151.309,21.146 151.609,20.677 152.009,20.343 C152.409,20.009 152.879,19.843 153.409,19.843 C153.759,19.843 154.029,19.883 154.219,19.965 L154.219,21.978 L154.239,21.978 Z" id="Shape" fill-opacity="0.9" fill="#000000"></path>
            <path d="M49.753,0.823 L45.925,11.16 L44.592,11.16 L40.844,0.822 L42.192,0.822 L45.052,9.017 C45.144,9.282 45.214,9.587 45.262,9.933 L45.292,9.933 C45.33,9.645 45.409,9.333 45.53,9.003 L48.45,0.823 L49.753,0.823 L49.753,0.823 Z M51.243,1.903 C51.03,1.903 50.85,1.833 50.701,1.688 C50.561,1.543 50.481,1.36 50.481,1.14 C50.481,0.92 50.561,0.735 50.711,0.59 C50.861,0.442 51.041,0.37 51.251,0.37 C51.471,0.37 51.651,0.442 51.801,0.59 C51.951,0.736 52.031,0.92 52.031,1.14 C52.031,1.35 51.961,1.53 51.811,1.68 C51.661,1.83 51.481,1.904 51.261,1.904 L51.243,1.903 Z M51.819,11.159 L50.629,11.159 L50.629,3.77 L51.809,3.77 L51.809,11.15 L51.819,11.159 Z M53.319,10.889 L53.319,9.62 C53.959,10.1 54.669,10.336 55.439,10.336 C56.479,10.336 56.999,9.99 56.999,9.298 C56.999,9.1 56.949,8.933 56.859,8.796 C56.769,8.659 56.649,8.538 56.499,8.432 C56.349,8.326 56.169,8.232 55.959,8.147 L55.299,7.883 C54.969,7.753 54.679,7.623 54.439,7.49 C54.189,7.358 53.979,7.21 53.819,7.043 C53.649,6.877 53.529,6.689 53.439,6.477 C53.359,6.267 53.309,6.019 53.309,5.735 C53.309,5.389 53.389,5.083 53.549,4.815 C53.709,4.549 53.919,4.325 54.179,4.145 C54.439,3.965 54.739,3.83 55.079,3.738 C55.419,3.648 55.769,3.603 56.129,3.603 C56.769,3.603 57.339,3.713 57.839,3.933 L57.839,5.13 C57.289,4.776 56.669,4.6 55.959,4.6 C55.739,4.6 55.539,4.625 55.359,4.675 C55.179,4.725 55.029,4.797 54.899,4.888 C54.769,4.978 54.669,5.088 54.599,5.215 C54.529,5.343 54.499,5.483 54.499,5.637 C54.499,5.829 54.529,5.99 54.599,6.12 C54.669,6.25 54.769,6.365 54.903,6.467 C55.043,6.567 55.203,6.659 55.393,6.74 C55.583,6.822 55.803,6.91 56.053,7.007 C56.383,7.132 56.673,7.26 56.933,7.393 C57.193,7.526 57.413,7.673 57.593,7.841 C57.773,8.011 57.913,8.201 58.013,8.421 C58.113,8.641 58.163,8.901 58.163,9.191 C58.163,9.561 58.083,9.871 57.923,10.141 C57.763,10.411 57.546,10.641 57.277,10.811 C57.007,10.991 56.697,11.121 56.347,11.211 C55.997,11.301 55.627,11.341 55.244,11.341 C54.484,11.341 53.824,11.201 53.274,10.901 L53.319,10.889 Z M65.549,11.149 L64.369,11.149 L64.369,9.99 L64.339,9.99 C63.849,10.885 63.089,11.332 62.059,11.332 C60.299,11.332 59.419,10.284 59.419,8.189 L59.419,3.77 L60.599,3.77 L60.599,8 C60.599,9.56 61.189,10.337 62.379,10.337 C62.949,10.337 63.429,10.124 63.799,9.699 C64.169,9.269 64.359,8.709 64.359,8.029 L64.359,3.77 L65.539,3.77 L65.539,11.152 L65.549,11.149 Z M72.769,11.149 L71.6,11.149 L71.6,10 L71.57,10 C71.058,10.885 70.3,11.327 69.3,11.327 C68.567,11.327 67.99,11.132 67.576,10.742 C67.16,10.352 66.952,9.836 66.952,9.192 C66.952,7.812 67.764,7.012 69.388,6.784 L71.6,6.474 C71.6,5.221 71.093,4.594 70.08,4.594 C69.19,4.594 68.388,4.896 67.672,5.502 L67.672,4.292 C68.397,3.829 69.232,3.599 70.18,3.599 C71.915,3.599 72.782,4.509 72.782,6.349 L72.782,11.149 L72.769,11.149 Z M71.589,7.419 L69.809,7.659 C69.259,7.729 68.849,7.869 68.569,8.069 C68.289,8.259 68.149,8.609 68.149,9.099 C68.149,9.459 68.279,9.749 68.529,9.979 C68.779,10.199 69.129,10.319 69.549,10.319 C70.129,10.319 70.619,10.109 70.999,9.699 C71.379,9.289 71.569,8.769 71.569,8.139 L71.569,7.4 L71.589,7.419 Z M75.739,11.149 L74.559,11.149 L74.559,0.23 L75.739,0.23 L75.739,11.16 L75.739,11.149 Z M79.429,10.729 L79.429,9.31 C79.589,9.454 79.789,9.584 80.009,9.7 C80.239,9.814 80.479,9.91 80.729,9.99 C80.979,10.07 81.229,10.13 81.489,10.175 C81.739,10.215 81.979,10.238 82.189,10.238 C82.929,10.238 83.489,10.1 83.849,9.823 C84.209,9.543 84.399,9.143 84.399,8.623 C84.399,8.345 84.339,8.103 84.209,7.896 C84.079,7.686 83.919,7.498 83.699,7.328 C83.479,7.158 83.229,6.994 82.929,6.838 C82.629,6.682 82.309,6.518 81.969,6.344 C81.609,6.159 81.269,5.974 80.959,5.787 C80.649,5.601 80.369,5.397 80.139,5.167 C79.909,4.943 79.729,4.687 79.589,4.402 C79.459,4.115 79.389,3.782 79.389,3.396 C79.389,2.926 79.489,2.516 79.699,2.166 C79.899,1.816 80.169,1.53 80.509,1.306 C80.839,1.078 81.229,0.91 81.659,0.799 C82.089,0.689 82.519,0.629 82.969,0.629 C83.989,0.629 84.729,0.749 85.192,0.989 L85.192,2.359 C84.582,1.929 83.796,1.719 82.842,1.719 C82.575,1.719 82.312,1.749 82.047,1.799 C81.777,1.849 81.547,1.939 81.337,2.069 C81.137,2.189 80.967,2.349 80.837,2.549 C80.707,2.749 80.647,2.989 80.647,3.279 C80.647,3.539 80.697,3.769 80.797,3.959 C80.897,4.149 81.047,4.319 81.237,4.479 C81.427,4.629 81.662,4.789 81.937,4.939 C82.213,5.089 82.531,5.249 82.892,5.429 C83.262,5.609 83.612,5.799 83.942,5.999 C84.272,6.199 84.569,6.429 84.819,6.669 C85.069,6.919 85.266,7.189 85.409,7.489 C85.559,7.779 85.629,8.129 85.629,8.509 C85.629,9.019 85.529,9.449 85.329,9.799 C85.129,10.149 84.859,10.439 84.519,10.659 C84.189,10.879 83.799,11.039 83.349,11.139 C82.909,11.229 82.449,11.279 81.949,11.279 C81.789,11.279 81.589,11.269 81.349,11.239 C81.109,11.209 80.869,11.169 80.619,11.119 C80.369,11.069 80.139,11.009 79.909,10.929 C79.689,10.859 79.509,10.779 79.379,10.679 L79.429,10.729 Z M90.319,11.069 C90.039,11.219 89.669,11.299 89.209,11.299 C87.919,11.299 87.269,10.579 87.269,9.139 L87.269,4.78 L86,4.78 L86,3.77 L87.27,3.77 L87.27,1.97 L88.453,1.587 L88.453,3.777 L90.313,3.777 L90.313,4.787 L88.453,4.787 L88.453,8.943 C88.453,9.438 88.533,9.791 88.703,10.003 C88.866,10.215 89.143,10.32 89.533,10.32 C89.833,10.32 90.089,10.24 90.303,10.076 L90.303,11.086 L90.319,11.069 Z M97.639,11.139 L96.459,11.139 L96.459,9.99 L96.429,9.99 C95.939,10.885 95.179,11.332 94.149,11.332 C92.389,11.332 91.509,10.284 91.509,8.189 L91.509,3.77 L92.689,3.77 L92.689,8 C92.689,9.56 93.279,10.337 94.479,10.337 C95.049,10.337 95.529,10.124 95.899,9.699 C96.269,9.269 96.459,8.709 96.459,8.029 L96.459,3.77 L97.639,3.77 L97.639,11.152 L97.639,11.139 Z M106.109,11.139 L104.919,11.139 L104.919,9.9 L104.889,9.9 C104.339,10.85 103.499,11.326 102.349,11.326 C101.419,11.326 100.679,10.996 100.119,10.336 C99.559,9.676 99.289,8.776 99.289,7.636 C99.289,6.416 99.599,5.436 100.209,4.706 C100.819,3.97 101.639,3.606 102.669,3.606 C103.679,3.606 104.419,4.006 104.879,4.8 L104.909,4.8 L104.909,0.234 L106.089,0.234 L106.089,11.16 L106.109,11.139 Z M104.929,7.799 L104.929,6.72 C104.929,6.127 104.729,5.62 104.339,5.21 C103.949,4.795 103.449,4.59 102.839,4.59 C102.119,4.59 101.549,4.853 101.139,5.38 C100.729,5.91 100.519,6.64 100.519,7.573 C100.519,8.423 100.719,9.093 101.109,9.586 C101.499,10.079 102.039,10.326 102.699,10.326 C103.359,10.326 103.889,10.088 104.299,9.611 C104.709,9.131 104.909,8.531 104.909,7.811 L104.929,7.799 Z M108.889,1.879 C108.679,1.879 108.499,1.799 108.349,1.659 C108.199,1.509 108.119,1.329 108.119,1.109 C108.119,0.889 108.189,0.699 108.339,0.559 C108.489,0.409 108.669,0.339 108.879,0.339 C109.099,0.339 109.279,0.409 109.439,0.559 C109.589,0.699 109.669,0.889 109.669,1.109 C109.669,1.319 109.589,1.499 109.439,1.649 C109.289,1.799 109.099,1.869 108.889,1.869 L108.889,1.879 Z M109.469,11.129 L108.289,11.129 L108.289,3.78 L109.469,3.78 L109.469,11.16 L109.469,11.129 Z M114.719,11.299 C113.629,11.299 112.759,10.949 112.099,10.259 C111.449,9.569 111.119,8.649 111.119,7.509 C111.119,6.269 111.459,5.299 112.129,4.599 C112.809,3.909 113.719,3.559 114.879,3.559 C115.979,3.559 116.839,3.899 117.449,4.569 C118.069,5.249 118.379,6.189 118.379,7.389 C118.379,8.569 118.049,9.509 117.379,10.219 C116.709,10.929 115.819,11.285 114.699,11.285 L114.719,11.299 Z M114.799,4.569 C114.039,4.569 113.439,4.829 112.999,5.339 C112.559,5.849 112.339,6.569 112.339,7.469 C112.339,8.349 112.559,9.039 113.009,9.539 C113.449,10.039 114.049,10.299 114.799,10.299 C115.559,10.299 116.149,10.049 116.559,9.549 C116.969,9.049 117.169,8.349 117.169,7.429 C117.169,6.509 116.969,5.799 116.559,5.299 C116.149,4.799 115.559,4.549 114.789,4.549 L114.799,4.569 Z" id="Shape" fill-opacity="0.54" fill="#000000"></path>
        </g>
    </g>
</svg>