<?xml version="1.0" encoding="UTF-8"?>
<svg width="299px" height="229px" viewBox="0 0 299 229" version="1.1" xmlns="http://www.w3.org/2000/svg" xmlns:xlink="http://www.w3.org/1999/xlink">
    <!-- Generator: Sketch 42 (36781) - http://www.bohemiancoding.com/sketch -->
    <title>overview</title>
    <desc>Created with Sketch.</desc>
    <defs>
        <polygon id="path-1" points="0.149723611 27.2246962 30.0994367 27.2246962 30.0994367 0.423517418 0.149723611 0.423517418"></polygon>
        <polygon id="path-3" points="0.149723611 27.2246962 30.0994367 27.2246962 30.0994367 0.423517418 0.149723611 0.423517418"></polygon>
        <polygon id="path-5" points="0.149723611 27.2246962 30.0994367 27.2246962 30.0994367 0.423517418 0.149723611 0.423517418"></polygon>
        <polygon id="path-7" points="0.149723611 27.2246962 30.0994367 27.2246962 30.0994367 0.423517418 0.149723611 0.423517418"></polygon>
        <polygon id="path-9" points="0.149723611 27.2246962 30.0994367 27.2246962 30.0994367 0.423517418 0.149723611 0.423517418"></polygon>
        <polygon id="path-11" points="0.149723611 27.2246962 30.0994367 27.2246962 30.0994367 0.423517418 0.149723611 0.423517418"></polygon>
        <polygon id="path-13" points="0.432040154 27.2246962 30.2490964 27.2246962 30.2490964 0.423517418 0.432040154 0.423517418"></polygon>
        <polygon id="path-15" points="0.432040154 27.2246962 30.2490964 27.2246962 30.2490964 0.423517418 0.432040154 0.423517418"></polygon>
        <polygon id="path-17" points="0.432040154 27.2246962 30.2490964 27.2246962 30.2490964 0.423517418 0.432040154 0.423517418"></polygon>
        <polygon id="path-19" points="0.432040154 27.2246962 30.2490964 27.2246962 30.2490964 0.423517418 0.432040154 0.423517418"></polygon>
        <polygon id="path-21" points="0.432040154 27.2246962 30.2490964 27.2246962 30.2490964 0.423517418 0.432040154 0.423517418"></polygon>
        <polygon id="path-23" points="0.432040154 27.2246962 30.2490964 27.2246962 30.2490964 0.423517418 0.432040154 0.423517418"></polygon>
    </defs>
    <g id="Page-1" stroke="none" stroke-width="1" fill="none" fill-rule="evenodd">
        <g id="overview">
            <g id="illustration">
                <path d="M255.728371,213.434705 L253.662185,213.434705 L253.662185,215.497484 L255.728371,213.434705 L255.728371,213.434705 Z M270.915336,213.434705 L267.526591,213.434705 L267.526591,216.817862 L270.915336,213.434705 L270.915336,213.434705 Z M285.97254,213.434705 L282.878252,213.434705 L282.878252,221.232408 L267.526591,221.232408 L253.662185,221.232408 L246.724991,221.232408 L246.724991,213.434705 L214.858815,213.434705 L214.858815,221.232408 L207.916631,221.232408 L207.916631,213.434705 L185.642748,213.434705 L185.642748,221.232408 L68.3392893,221.232408 L68.3392893,213.434705 L62.4451698,213.434705 L62.4451698,221.232408 L55.3582522,221.232408 L55.3582522,213.434705 L22.0148039,213.434705 L22.0148039,221.232408 L15.0776099,221.232408 L15.0776099,213.434705 L8.13941774,213.434705 C3.86580679,213.434705 0.464086339,216.967338 0.464086339,221.087914 C0.464086339,225.362948 3.86580679,228.895582 8.13941774,228.895582 L285.97254,228.895582 C290.244654,228.895582 293.648371,225.362948 293.648371,221.087914 C293.648371,216.967338 290.244654,213.434705 285.97254,213.434705 L285.97254,213.434705 Z" id="Fill-2" fill="#EBEBEB" fill-rule="nonzero"></path>
                <path d="M216.625554,136.857773 L216.47583,136.857773 L185.642748,136.857773 L216.47583,136.857773 L216.625554,136.857773 L216.625554,136.857773 Z M216.770287,136.857773 L216.625554,136.857773 L216.770287,136.857773 L216.770287,136.857773 Z M216.920011,136.857773 C216.920011,136.857773 216.920011,136.857773 216.770287,136.857773 L216.920011,136.857773 L216.920011,136.857773 Z M207.40258,114.329138 L185.642748,95.9210776 L185.642748,71.327172 L156.426681,71.327172 L101.837452,25.2285467 L113.790387,25.2285467 C116.590218,25.2285467 118.651414,23.0212736 118.651414,20.2260586 C118.651414,17.5803204 116.590218,15.3730473 113.790387,15.3730473 L81.4800316,15.3730473 C77.3376783,15.3730473 73.9489339,11.9749428 73.9489339,7.85436744 C73.9489339,3.73877464 77.3376783,0.340670182 81.4800316,0.340670182 L183.137373,0.340670182 C187.264754,0.340670182 190.653498,3.73877464 190.653498,7.85436744 C190.653498,11.9749428 187.264754,15.3730473 183.137373,15.3730473 L155.248855,15.3730473 C153.921306,15.3730473 152.888213,16.3994542 152.888213,17.7248146 C152.888213,19.050175 153.921306,20.0815644 155.248855,20.0815644 L219.425386,20.0815644 C226.217847,20.0815644 231.667786,25.5225176 231.667786,32.3037789 C231.667786,39.0700924 226.217847,44.5259933 219.425386,44.5259933 L167.341532,44.5259933 L166.902343,44.5259933 L166.607886,44.5259933 L166.163706,44.5259933 L166.163706,44.67547 C164.5417,44.9694409 163.363875,46.4392955 163.363875,48.203121 C163.363875,49.971929 164.5417,51.4417836 166.163706,51.7357545 L166.163706,51.8852313 L227.395673,51.8852313 C236.249329,51.8852313 243.336246,58.9554809 243.336246,67.6500443 C243.336246,76.4791369 236.249329,83.5493865 227.395673,83.5493865 L201.12916,83.5493865 C200.834704,83.4048923 200.535257,83.4048923 200.096067,83.4048923 C197.590692,83.4048923 195.379774,85.6121654 195.379774,88.1134095 C195.379774,90.7591477 197.590692,92.8318918 200.096067,92.8318918 L216.47583,92.8318918 C228.573498,92.8318918 238.460247,102.687391 238.460247,114.914588 C238.460247,126.842832 228.867955,136.563802 216.920011,136.857773 C221.486581,136.713279 225.773667,135.238442 229.162411,132.737198 L207.40258,114.329138 L229.162411,132.737198 C225.773667,135.238442 221.486581,136.713279 216.920011,136.857773 L216.770287,136.857773 L216.625554,136.857773 L216.47583,136.857773 L185.642748,136.857773 L185.642748,95.9210776 L207.40258,114.329138 Z M68.3392893,110.350565 C58.7469966,111.232478 51.2308713,119.483594 51.2308713,129.344076 C51.2308713,139.214523 58.7469966,147.316162 68.3392893,148.198075 L68.3392893,110.350565 Z M101.837452,25.2285467 L49.1547039,25.2285467 C34.1124717,25.2285467 22.0148039,37.306267 22.0148039,52.1792022 C22.0148039,67.0621025 34.1124717,79.1348402 49.1547039,79.1348402 L68.3392893,79.4337937 L68.3392893,71.327172 L127.360337,71.327172 L156.426681,71.327172 L101.837452,25.2285467 Z" id="Combined-Shape" fill="#DEDEDE" fill-rule="nonzero"></path>
                <polygon id="Fill-5" fill="#FCD116" fill-rule="nonzero" points="15.0776099 221.232408 22.0163011 221.232408 22.0163011 155.407836 15.0776099 155.407836"></polygon>
                <polygon id="Fill-6" fill="#CAA712" fill-rule="nonzero" points="22.0148039 163.364981 18.4663543 163.364981 18.4663543 221.232408 22.0148039 221.232408 22.0148039 213.434705"></polygon>
                <polygon id="Fill-7" fill="#FCD116" fill-rule="nonzero" points="55.3582522 221.232408 62.4441716 221.232408 62.4441716 155.407836 55.3582522 155.407836"></polygon>
                <polygon id="Fill-8" fill="#CAA712" fill-rule="nonzero" points="62.4451698 163.364981 58.8967202 163.364981 58.8967202 221.232408 62.4451698 221.232408 62.4451698 213.434705"></polygon>
                <polygon id="Fill-9" fill="#FCD116" fill-rule="nonzero" points="15.0776099 163.364981 134.297531 163.364981 134.297531 151.73021 15.0776099 151.73021"></polygon>
                <polygon id="Fill-10" fill="#FCD116" fill-rule="nonzero" points="207.916631 221.232408 214.855322 221.232408 214.855322 155.407836 207.916631 155.407836"></polygon>
                <polygon id="Fill-11" fill="#FCD116" fill-rule="nonzero" points="246.724991 221.232408 253.663682 221.232408 253.663682 155.407836 246.724991 155.407836"></polygon>
                <polygon id="Fill-12" fill="#FCD116" fill-rule="nonzero" points="68.3392893 221.232408 185.642748 221.232408 185.642748 71.327172 68.3392893 71.327172"></polygon>
                <polygon id="Fill-13" fill="#FFB900" fill-rule="nonzero" points="134.297531 111.526449 178.409101 111.526449 178.409101 101.068558 134.297531 101.068558"></polygon>
                <path d="M134.297531,111.526449 L134.297531,101.073042 L178.406107,101.073042 L178.406107,111.526449 L134.297531,111.526449 L134.297531,111.526449 Z M185.642748,71.327172 L156.426681,71.327172 L127.360337,71.327172 L127.360337,129.782541 L152.2993,151.730708 L185.642748,151.730708 L185.642748,71.327172 L185.642748,71.327172 Z" id="Fill-14" fill="#E2BC14" fill-rule="nonzero"></path>
                <polygon id="Fill-15" fill="#E2BC14" fill-rule="nonzero" points="185.642748 163.364981 165.574793 163.364981 185.642748 181.033131 185.642748 221.232408 185.642748 221.232408 185.642748 213.434705"></polygon>
                <polygon id="Fill-16" fill="#E5A600" fill-rule="nonzero" points="134.297531 111.526449 178.409101 111.526449 178.409101 101.068558 134.297531 101.068558"></polygon>
                <path d="M135.62508,215.348007 C135.475357,215.348007 135.330624,215.203513 135.330624,215.054036 C135.330624,214.904559 135.475357,214.760065 135.62508,214.760065 L154.066038,214.760065 C154.215762,214.760065 154.365486,214.904559 154.365486,215.054036 C154.365486,215.203513 154.215762,215.348007 154.066038,215.348007 L135.62508,215.348007 L135.62508,215.348007 Z M135.62508,212.99624 C135.475357,212.99624 135.330624,212.846763 135.330624,212.702269 C135.330624,212.552792 135.475357,212.408298 135.62508,212.408298 L154.066038,212.408298 C154.215762,212.408298 154.365486,212.552792 154.365486,212.702269 C154.365486,212.846763 154.215762,212.99624 154.066038,212.99624 L135.62508,212.99624 L135.62508,212.99624 Z M135.62508,210.494996 C135.475357,210.494996 135.330624,210.345519 135.330624,210.201025 C135.330624,210.051548 135.475357,209.907054 135.62508,209.907054 L154.066038,209.907054 C154.215762,209.907054 154.365486,210.051548 154.365486,210.201025 C154.365486,210.345519 154.215762,210.494996 154.066038,210.494996 L135.62508,210.494996 L135.62508,210.494996 Z M135.62508,208.128281 C135.475357,208.128281 135.330624,207.978804 135.330624,207.83431 C135.330624,207.684833 135.475357,207.540339 135.62508,207.540339 L154.066038,207.540339 C154.215762,207.540339 154.365486,207.684833 154.365486,207.83431 C154.365486,207.978804 154.215762,208.128281 154.066038,208.128281 L135.62508,208.128281 L135.62508,208.128281 Z M135.62508,205.771531 C135.475357,205.771531 135.330624,205.627037 135.330624,205.47756 C135.330624,205.333066 135.475357,205.183589 135.62508,205.183589 L154.066038,205.183589 C154.215762,205.183589 154.365486,205.333066 154.365486,205.47756 C154.365486,205.627037 154.215762,205.771531 154.066038,205.771531 L135.62508,205.771531 L135.62508,205.771531 Z M135.62508,203.419764 C135.475357,203.419764 135.330624,203.270287 135.330624,203.125793 C135.330624,202.831822 135.475357,202.831822 135.62508,202.831822 L154.066038,202.831822 C154.215762,202.831822 154.365486,202.831822 154.365486,203.125793 C154.365486,203.270287 154.215762,203.419764 154.066038,203.419764 L135.62508,203.419764 L135.62508,203.419764 Z M127.360337,129.782541 L127.360337,221.232408 L185.642748,221.232408 L185.642748,181.033131 L165.574793,163.364981 L134.297531,163.364981 L134.297531,151.730708 L152.2993,151.730708 L127.360337,129.782541 L127.360337,129.782541 Z" id="Fill-17" fill="#CBA912" fill-rule="nonzero"></path>
                <polygon id="Fill-18" fill="#DD5900" fill-rule="nonzero" points="134.297531 151.730708 178.409101 151.730708 178.409101 115.207563 134.297531 115.207563"></polygon>
                <polygon id="Fill-19" fill="#FCD116" fill-rule="nonzero" points="134.297531 163.364981 253.662185 163.364981 253.662185 151.73021 134.297531 151.73021"></polygon>
                <polygon id="Fill-20" fill="#FCD116" fill-rule="nonzero" points="222.384922 163.364981 246.430035 163.364981 246.430035 151.73021 222.384922 151.73021"></polygon>
                <polygon id="Fill-21" fill="#CAA712" fill-rule="nonzero" points="214.858815 163.364981 211.305375 163.364981 211.305375 221.232408 214.858815 221.232408 214.858815 213.434705"></polygon>
                <polygon id="Fill-22" fill="#CAA712" fill-rule="nonzero" points="253.662185 163.364981 250.263459 163.364981 250.263459 218.880641 253.662185 215.497484 253.662185 213.434705"></polygon>
                <path d="M222.384922,151.730708 L211.305375,151.730708 L211.305375,163.364981 L214.858815,163.364981 L222.384922,163.364981 L222.384922,151.730708 L222.384922,151.730708 Z M253.662185,151.730708 L246.430534,151.730708 L246.430534,163.364981 L250.263459,163.364981 L253.662185,163.364981 L253.662185,151.730708 L253.662185,151.730708 Z" id="Fill-23" fill="#CAA712" fill-rule="nonzero"></path>
                <polygon id="Fill-24" fill="#CAA712" fill-rule="nonzero" points="222.384922 163.364981 246.430035 163.364981 246.430035 151.73021 222.384922 151.73021"></polygon>
                <polygon id="Fill-25" fill="#0072C6" fill-rule="nonzero" points="250.263459 219.025135 257.639842 211.521403 267.526591 211.521403 267.526591 221.232408 250.263459 221.232408"></polygon>
                <polygon id="Fill-26" fill="#001F50" fill-rule="nonzero" points="257.789566 211.521403 267.528088 211.521403 267.528088 147.904104 257.789566 147.904104"></polygon>
                <polygon id="Fill-27" fill="#005B9E" fill-rule="nonzero" points="267.526591 211.521403 262.960021 211.521403 262.960021 221.232408 267.526591 221.232408 265.465396 221.232408 265.465396 219.025135 267.526591 216.817862"></polygon>
                <polygon id="Fill-28" fill="#001A40" fill-rule="nonzero" points="262.960021 211.521403 267.528338 211.521403 267.528338 150.843813 262.960021 150.843813"></polygon>
                <polygon id="Fill-29" fill="#001F50" fill-rule="nonzero" points="272.991503 211.521403 282.877254 211.521403 282.877254 147.904104 272.991503 147.904104"></polygon>
                <polygon id="Fill-30" fill="#0072C6" fill-rule="nonzero" points="265.465396 219.025135 272.991503 211.521403 282.878252 211.521403 282.878252 221.232408 265.465396 221.232408"></polygon>
                <polygon id="Fill-31" fill="#001A40" fill-rule="nonzero" points="278.151977 211.521403 282.879949 211.521403 282.879949 150.843813 278.151977 150.843813"></polygon>
                <polygon id="Fill-32" fill="#005B9E" fill-rule="nonzero" points="282.878252 211.521403 282.878252 211.521403 278.151977 211.521403 278.151977 221.232408 282.878252 221.232408 282.878252 213.434705"></polygon>
                <polygon id="Fill-33" fill="#FFB900" fill-rule="nonzero" points="76.1598526 93.1258627 120.124195 93.1258627 120.124195 79.1368332 76.1598526 79.1368332"></polygon>
                <polygon id="Fill-34" fill="#FF8C00" fill-rule="nonzero" points="76.1598526 93.1258627 79.6966237 93.1258627 79.6966237 79.1368332 76.1598526 79.1368332"></polygon>
                <path d="M154.066038,202.831822 L135.62508,202.831822 C135.475357,202.831822 135.330624,202.831822 135.330624,203.125793 C135.330624,203.270287 135.475357,203.419764 135.62508,203.419764 L154.066038,203.419764 C154.215762,203.419764 154.365486,203.270287 154.365486,203.125793 C154.365486,202.831822 154.215762,202.831822 154.066038,202.831822 L154.066038,202.831822 Z" id="Fill-35" fill="#656431" fill-rule="nonzero"></path>
                <path d="M154.066038,205.183589 L135.62508,205.183589 C135.475357,205.183589 135.330624,205.333066 135.330624,205.47756 C135.330624,205.627037 135.475357,205.771531 135.62508,205.771531 L154.066038,205.771531 C154.215762,205.771531 154.365486,205.627037 154.365486,205.47756 C154.365486,205.333066 154.215762,205.183589 154.066038,205.183589 L154.066038,205.183589 Z" id="Fill-36" fill="#656431" fill-rule="nonzero"></path>
                <path d="M154.066038,207.540339 L135.62508,207.540339 C135.475357,207.540339 135.330624,207.684833 135.330624,207.83431 C135.330624,207.978804 135.475357,208.128281 135.62508,208.128281 L154.066038,208.128281 C154.215762,208.128281 154.365486,207.978804 154.365486,207.83431 C154.365486,207.684833 154.215762,207.540339 154.066038,207.540339 L154.066038,207.540339 Z" id="Fill-37" fill="#656431" fill-rule="nonzero"></path>
                <path d="M154.066038,209.907054 L135.62508,209.907054 C135.475357,209.907054 135.330624,210.051548 135.330624,210.201025 C135.330624,210.345519 135.475357,210.494996 135.62508,210.494996 L154.066038,210.494996 C154.215762,210.494996 154.365486,210.345519 154.365486,210.201025 C154.365486,210.051548 154.215762,209.907054 154.066038,209.907054 L154.066038,209.907054 Z" id="Fill-38" fill="#656431" fill-rule="nonzero"></path>
                <path d="M154.066038,212.408298 L135.62508,212.408298 C135.475357,212.408298 135.330624,212.552792 135.330624,212.702269 C135.330624,212.846763 135.475357,212.99624 135.62508,212.99624 L154.066038,212.99624 C154.215762,212.99624 154.365486,212.846763 154.365486,212.702269 C154.365486,212.552792 154.215762,212.408298 154.066038,212.408298 L154.066038,212.408298 Z" id="Fill-39" fill="#656431" fill-rule="nonzero"></path>
                <path d="M154.066038,214.760065 L135.62508,214.760065 C135.475357,214.760065 135.330624,214.904559 135.330624,215.054036 C135.330624,215.203513 135.475357,215.348007 135.62508,215.348007 L154.066038,215.348007 C154.215762,215.348007 154.365486,215.203513 154.365486,215.054036 C154.365486,214.904559 154.215762,214.760065 154.066038,214.760065 L154.066038,214.760065 Z" id="Fill-40" fill="#656431" fill-rule="nonzero"></path>
                <polygon id="Fill-41" fill="#FFB900" fill-rule="nonzero" points="76.1598526 112.119373 88.2560232 112.119373 88.2560232 98.1303438 76.1598526 98.1303438"></polygon>
                <polygon id="Fill-42" fill="#FF8C00" fill-rule="nonzero" points="84.5743196 112.119373 88.2584686 112.119373 88.2584686 98.1303438 84.5743196 98.1303438"></polygon>
                <path d="M104.637283,97.6849031 C104.492551,97.6849031 104.342827,97.8343799 104.342827,97.978874 L104.342827,111.969897 C104.342827,112.263867 104.492551,112.263867 104.637283,112.263867 C104.787007,112.263867 104.93174,112.263867 104.93174,111.969897 L104.93174,97.978874 C104.93174,97.8343799 104.787007,97.6849031 104.637283,97.6849031 L104.637283,97.6849031 Z" id="Fill-43" fill="#FEAE0B" fill-rule="nonzero"></path>
                <path d="M102.131908,97.6849031 C101.987176,97.6849031 101.837452,97.8343799 101.837452,97.978874 L101.837452,111.969897 C101.837452,112.263867 101.987176,112.263867 102.131908,112.263867 C102.426365,112.263867 102.426365,112.263867 102.426365,111.969897 L102.426365,97.978874 C102.426365,97.8343799 102.426365,97.6849031 102.131908,97.6849031 L102.131908,97.6849031 Z" id="Fill-44" fill="#FEAE0B" fill-rule="nonzero"></path>
                <path d="M99.7662753,97.6849031 C99.6165517,97.6849031 99.4668281,97.8343799 99.4668281,97.978874 L99.4668281,111.969897 C99.4668281,112.263867 99.6165517,112.263867 99.7662753,112.263867 C99.9110082,112.263867 100.060732,112.263867 100.060732,111.969897 L100.060732,97.978874 C100.060732,97.8343799 99.9110082,97.6849031 99.7662753,97.6849031 L99.7662753,97.6849031 Z" id="Fill-45" fill="#FEAE0B" fill-rule="nonzero"></path>
                <path d="M97.4056331,97.6849031 C97.2609002,97.6849031 97.1111766,97.8343799 97.1111766,97.978874 L97.1111766,111.969897 C97.1111766,112.263867 97.2609002,112.263867 97.4056331,112.263867 C97.5553567,112.263867 97.7000895,112.263867 97.7000895,111.969897 L97.7000895,97.978874 C97.7000895,97.8343799 97.5553567,97.6849031 97.4056331,97.6849031 L97.4056331,97.6849031 Z" id="Fill-46" fill="#FEAE0B" fill-rule="nonzero"></path>
                <path d="M95.0499816,97.6849031 C94.900258,97.6849031 94.7555251,97.8343799 94.7555251,97.978874 L94.7555251,111.969897 C94.7555251,112.263867 94.900258,112.263867 95.0499816,112.263867 C95.1947144,112.263867 95.344438,112.263867 95.344438,111.969897 L95.344438,97.978874 C95.344438,97.8343799 95.1947144,97.6849031 95.0499816,97.6849031 L95.0499816,97.6849031 Z" id="Fill-47" fill="#FEAE0B" fill-rule="nonzero"></path>
                <path d="M92.5446065,97.6849031 C92.3948829,97.6849031 92.25015,97.8343799 92.25015,97.978874 L92.25015,111.969897 C92.25015,112.263867 92.3948829,112.263867 92.5446065,112.263867 C92.8390629,112.263867 92.8390629,112.263867 92.8390629,111.969897 L92.8390629,97.978874 C92.8390629,97.8343799 92.8390629,97.6849031 92.5446065,97.6849031 L92.5446065,97.6849031 Z" id="Fill-48" fill="#FEAE0B" fill-rule="nonzero"></path>
                <path d="M94.900258,114.914588 L92.3948829,114.914588 L92.3948829,119.045129 L94.900258,119.045129 C95.9333509,119.045129 96.9664438,118.163216 96.9664438,116.972385 C96.9664438,115.796501 95.9333509,114.914588 94.900258,114.914588 L94.900258,114.914588 Z" id="Fill-49" fill="#FF8C00" fill-rule="nonzero"></path>
                <path d="M102.725812,114.914588 L100.205465,114.914588 L100.205465,119.045129 L102.725812,119.045129 C103.753914,119.045129 104.787007,118.163216 104.787007,116.972385 C104.787007,115.796501 103.753914,114.914588 102.725812,114.914588 L102.725812,114.914588 Z" id="Fill-50" fill="#FF8C00" fill-rule="nonzero"></path>
                <path d="M110.38667,114.914588 L108.031019,114.914588 L108.031019,119.045129 L110.38667,119.045129 C111.579468,119.045129 112.60757,118.163216 112.60757,116.972385 C112.60757,115.796501 111.579468,114.914588 110.38667,114.914588 L110.38667,114.914588 Z" id="Fill-51" fill="#FF8C00" fill-rule="nonzero"></path>
                <path d="M105.964833,116.972385 C105.964833,115.796501 106.848202,114.914588 108.031019,114.914588 C109.208844,114.914588 110.092214,115.796501 110.092214,116.972385 C110.092214,118.163216 109.208844,119.045129 108.031019,119.045129 C106.848202,119.045129 105.964833,118.163216 105.964833,116.972385 L105.964833,116.972385 Z" id="Fill-52" fill="#FFB900" fill-rule="nonzero"></path>
                <path d="M115.407402,150.111377 C114.818489,140.684377 106.997926,133.180645 97.2609002,133.180645 C87.2244275,133.180645 79.1094077,141.272319 79.1094077,151.287261 L79.1094077,196.65345 L111.270039,196.65345 L110.83085,172.79198 L115.407402,172.79198 L115.407402,150.111377 L115.407402,150.111377 L115.407402,150.111377 Z" id="Fill-53" fill="#FFFFFF" fill-rule="nonzero"></path>
                <path d="M106.409013,165.716748 C106.409013,164.984312 106.848202,164.540865 107.437115,164.540865 C108.175752,164.540865 108.619932,164.984312 108.619932,165.716748 C108.619932,166.309673 108.175752,166.748138 107.437115,166.748138 C106.848202,166.748138 106.409013,166.309673 106.409013,165.716748 L106.409013,165.716748 Z" id="Fill-54" fill="#ADB0B1" fill-rule="nonzero"></path>
                <path d="M83.5412266,151.142766 C83.5412266,143.479592 89.7298026,137.445715 97.2609002,137.445715 C104.93174,137.445715 110.975583,143.479592 110.975583,151.142766 C110.975583,158.80594 104.93174,164.834835 97.2609002,164.834835 C89.7298026,164.834835 83.5412266,158.80594 83.5412266,151.142766 L83.5412266,151.142766 Z" id="Fill-55" fill="#FFB900" fill-rule="nonzero"></path>
                <path d="M101.692719,148.347551 C101.692719,145.696831 99.6165517,143.479592 96.9664438,143.479592 C94.3113451,143.479592 92.1004264,145.696831 92.1004264,148.347551 C92.1004264,149.966883 92.9837957,151.436737 94.3113451,152.31865 C94.3113451,152.31865 95.344438,153.056069 95.344438,155.557313 L96.9664438,156.145255 L96.9664438,156.145255 L96.9664438,156.145255 L96.9664438,156.145255 L96.9664438,156.145255 L98.5834588,155.557313 L98.5834588,155.557313 L98.5834588,155.263342 C98.5834588,153.200563 99.4668281,152.31865 99.6165517,152.31865 C100.944101,151.436737 101.692719,149.966883 101.692719,148.347551 L101.692719,148.347551 Z M96.9664438,156.145255 L96.9664438,155.557313 L96.9664438,155.557313 L96.9664438,156.145255 L96.9664438,156.145255 Z" id="Fill-56" fill="#FFFFFF" fill-rule="nonzero"></path>
                <polygon id="Fill-57" fill="#001F50" fill-rule="nonzero" points="95.344438 157.774551 98.5865032 157.774551 98.5865032 155.555469 95.344438 155.555469"></polygon>
                <polygon id="Fill-58" fill="#001F50" fill-rule="nonzero" points="95.344438 156.289749 95.344438 156.145255 98.5834588 155.701807 98.5834588 155.851284"></polygon>
                <polygon id="Fill-59" fill="#001F50" fill-rule="nonzero" points="95.344438 157.037132 95.344438 156.892638 98.5834588 156.439225 98.5834588 156.58372"></polygon>
                <polygon id="Fill-60" fill="#001F50" fill-rule="nonzero" points="95.344438 157.625074 95.344438 157.48058 98.5834588 157.037132 98.5834588 157.186609"></polygon>
                <polygon id="Fill-61" fill="#231F1F" fill-rule="nonzero" points="96.0780837 157.774551 96.3725401 158.283755 97.5553567 158.283755 97.8498131 157.774551"></polygon>
                <path d="M68.3392893,129.782541 L68.3392893,221.232408 L127.360337,221.232408 L127.360337,181.033131 L115.407402,170.584707 L115.407402,172.79198 L110.83085,172.79198 L111.270039,196.65345 L79.1094077,196.65345 L79.1094077,151.287261 C79.1094077,147.75961 80.1375099,144.37147 81.9192208,141.56629 L68.3392893,129.782541 L68.3392893,129.782541 Z" id="Fill-62" fill="#E2BC14" fill-rule="nonzero"></path>
                <path d="M107.437115,166.748138 C106.848202,166.748138 106.409013,166.309673 106.409013,165.716748 C106.409013,164.984312 106.848202,164.540865 107.437115,164.540865 C108.175752,164.540865 108.619932,164.984312 108.619932,165.716748 C108.619932,166.309673 108.175752,166.748138 107.437115,166.748138 L107.437115,166.748138 Z M81.9192208,141.56629 C80.1375099,144.37147 79.1094077,147.75961 79.1094077,151.287261 L79.1094077,196.65345 L111.270039,196.65345 L110.83085,172.79198 L115.407402,172.79198 L115.407402,170.584707 L105.670376,162.03962 C103.314725,163.808429 100.355188,164.834835 97.2609002,164.834835 C89.7298026,164.834835 83.5412266,158.80594 83.5412266,151.142766 C83.5412266,148.641522 84.1301395,146.434249 85.3079653,144.37147 L81.9192208,141.56629 L81.9192208,141.56629 Z" id="Fill-63" fill="#EBEBEB" fill-rule="nonzero"></path>
                <path d="M107.437115,164.540865 C106.848202,164.540865 106.409013,164.984312 106.409013,165.716748 C106.409013,166.309673 106.848202,166.748138 107.437115,166.748138 C108.175752,166.748138 108.619932,166.309673 108.619932,165.716748 C108.619932,164.984312 108.175752,164.540865 107.437115,164.540865 L107.437115,164.540865 Z" id="Fill-64" fill="#9B9E9F" fill-rule="nonzero"></path>
                <path d="M85.3079653,144.37147 C84.1301395,146.434249 83.5412266,148.641522 83.5412266,151.142766 C83.5412266,158.80594 89.7298026,164.834835 97.2609002,164.834835 C100.355188,164.834835 103.314725,163.808429 105.670376,162.03962 L98.5834588,155.995778 L98.5834588,156.439225 L98.5834588,156.58372 L98.5834588,156.58372 L98.5834588,157.037132 L98.5834588,157.186609 L98.5834588,157.186609 L98.5834588,157.774551 L97.8498131,157.774551 L97.5553567,158.217999 L96.3725401,158.217999 L96.0780837,157.774551 L97.8498131,157.774551 L95.344438,157.774551 L95.344438,157.625074 L95.344438,157.48058 L95.344438,157.48058 L95.344438,157.037132 L95.344438,156.892638 L95.344438,156.892638 L95.344438,156.289749 L95.344438,156.145255 L95.344438,156.145255 L95.344438,155.557313 L95.344438,155.557313 C95.344438,153.056069 94.3113451,152.31865 94.3113451,152.31865 C93.867165,152.024679 93.5727086,151.730708 93.2782522,151.287261 L85.3079653,144.37147 L85.3079653,144.37147 Z" id="Fill-65" fill="#E5A600" fill-rule="nonzero"></path>
                <path d="M93.2782522,151.287261 C93.5727086,151.730708 93.867165,152.024679 94.3113451,152.31865 C94.3113451,152.31865 95.344438,153.056069 95.344438,155.557313 L95.344438,155.557313 L95.344438,155.557313 L97.9945459,155.557313 L93.2782522,151.287261 L93.2782522,151.287261 Z" id="Fill-66" fill="#EBEBEB" fill-rule="nonzero"></path>
                <path d="M98.5834588,157.186609 L95.344438,157.625074 L95.344438,157.625074 L95.344438,157.774551 L97.8498131,157.774551 L98.5834588,157.774551 L98.5834588,157.186609 L98.5834588,157.186609 Z M98.5834588,156.58372 L95.344438,157.037132 L95.344438,157.037132 L95.344438,157.48058 L98.5834588,157.037132 L98.5834588,157.037132 L98.5834588,156.58372 L98.5834588,156.58372 Z M98.438726,155.851284 L95.344438,156.289749 L95.344438,156.289749 L95.344438,156.892638 L98.5834588,156.439225 L98.5834588,156.439225 L98.5834588,155.995778 L98.438726,155.851284 L98.438726,155.851284 Z M97.9945459,155.557313 L95.344438,155.557313 L95.344438,155.557313 L95.344438,156.145255 L98.2890024,155.701807 L97.9945459,155.557313 L97.9945459,155.557313 Z" id="Fill-67" fill="#001D48" fill-rule="nonzero"></path>
                <polygon id="Fill-68" fill="#001D48" fill-rule="nonzero" points="98.2890024 155.701807 95.344438 156.145255 95.344438 156.145255 95.344438 156.289749 95.344438 156.289749 98.438726 155.851284"></polygon>
                <polygon id="Fill-69" fill="#001D48" fill-rule="nonzero" points="98.5834588 156.439225 95.344438 156.892638 95.344438 156.892638 95.344438 157.037132 95.344438 157.037132 98.5834588 156.58372 98.5834588 156.58372"></polygon>
                <polygon id="Fill-70" fill="#001D48" fill-rule="nonzero" points="98.5834588 157.037132 95.344438 157.48058 95.344438 157.48058 95.344438 157.625074 95.344438 157.625074 98.5834588 157.186609 98.5834588 157.186609"></polygon>
                <polygon id="Fill-71" fill="#1F1C1D" fill-rule="nonzero" points="97.8498131 157.774551 96.0780837 157.774551 96.3725401 158.283755 97.5553567 158.283755"></polygon>
                <polygon id="Fill-72" fill="#FF8C00" fill-rule="nonzero" points="78.5204949 112.119373 79.1099567 112.119373 79.1099567 98.1303438 78.5204949 98.1303438"></polygon>
                <polygon id="Fill-73" fill="#FF8C00" fill-rule="nonzero" points="81.4800316 112.119373 82.0694934 112.119373 82.0694934 98.1303438 81.4800316 98.1303438"></polygon>
                <polygon id="Fill-74" fill="#FF8C00" fill-rule="nonzero" points="76.1598526 100.923566 84.4245959 100.923566 84.4245959 100.335076 76.1598526 100.335076"></polygon>
                <polygon id="Fill-75" fill="#FF8C00" fill-rule="nonzero" points="76.1598526 103.868257 84.4245959 103.868257 84.4245959 103.279768 76.1598526 103.279768"></polygon>
                <polygon id="Fill-76" fill="#FF8C00" fill-rule="nonzero" points="76.1598526 106.673438 84.4245959 106.673438 84.4245959 106.084948 76.1598526 106.084948"></polygon>
                <polygon id="Fill-77" fill="#FF8C00" fill-rule="nonzero" points="76.1598526 109.618129 84.4245959 109.618129 84.4245959 109.029639 76.1598526 109.029639"></polygon>
                <path d="M107.142659,84.8747469 L83.5412266,84.8747469 C83.0970466,84.8747469 82.6578573,84.4312992 82.6578573,83.9928341 C82.6578573,83.5493865 83.0970466,83.1109214 83.5412266,83.1109214 L107.142659,83.1109214 C107.586839,83.1109214 108.031019,83.5493865 108.031019,83.9928341 C108.031019,84.4312992 107.586839,84.8747469 107.142659,84.8747469 L107.142659,84.8747469 Z" id="Fill-78" fill="#DD5900" fill-rule="nonzero"></path>
                <path d="M95.9333509,88.8458455 L83.5412266,88.8458455 C83.0970466,88.8458455 82.6578573,88.4073804 82.6578573,87.9639327 C82.6578573,87.3759909 83.0970466,87.08202 83.5412266,87.08202 L95.9333509,87.08202 C96.3725401,87.08202 96.8167202,87.3759909 96.8167202,87.9639327 C96.8167202,88.4073804 96.3725401,88.8458455 95.9333509,88.8458455 L95.9333509,88.8458455 Z" id="Fill-79" fill="#DD5900" fill-rule="nonzero"></path>
                <polygon id="Fill-80" fill="#EC008C" fill-rule="nonzero" points="30.2695657 151.730708 37.7976689 151.730708 37.7976689 129.343578 30.2695657 129.343578"></polygon>
                <polygon id="Fill-81" fill="#68217A" fill-rule="nonzero" points="40.1563148 151.730708 47.684418 151.730708 47.684418 114.471639 40.1563148 114.471639"></polygon>
                <polygon id="Fill-82" fill="#FFF100" fill-rule="nonzero" points="50.0380732 151.730708 57.5661764 151.730708 57.5661764 129.343578 50.0380732 129.343578"></polygon>
                <polygon id="Fill-83" fill="#E81123" fill-rule="nonzero" points="59.9248223 151.730708 65.5369624 151.730708 65.5369624 144.227474 59.9248223 144.227474"></polygon>
                <path d="M90.3187155,116.972385 C90.3187155,115.796501 91.2020848,114.914588 92.3948829,114.914588 C93.5727086,114.914588 94.6058015,115.796501 94.6058015,116.972385 C94.6058015,118.163216 93.5727086,119.045129 92.3948829,119.045129 C91.2020848,119.045129 90.3187155,118.163216 90.3187155,116.972385 L90.3187155,116.972385 Z" id="Fill-84" fill="#FFB900" fill-rule="nonzero"></path>
                <path d="M98.1442695,116.972385 C98.1442695,115.796501 99.0276389,114.914588 100.205465,114.914588 C101.398263,114.914588 102.281632,115.796501 102.281632,116.972385 C102.281632,118.163216 101.398263,119.045129 100.205465,119.045129 C99.0276389,119.045129 98.1442695,118.163216 98.1442695,116.972385 L98.1442695,116.972385 Z" id="Fill-85" fill="#FFB900" fill-rule="nonzero"></path>
                <path d="M285.97254,113.001286 L285.97254,78.2429623 L250.113735,78.2429623 L250.702648,91.3470895 C250.702648,100.629595 254.400821,106.379467 254.400821,106.379467 C250.852372,113.439751 250.702648,134.799977 250.702648,145.108889 L250.702648,150.848796 L285.97254,150.848796 C285.97254,150.848796 285.678084,118.751158 282.878252,113.001286 L285.97254,113.001286 L285.97254,113.001286 Z" id="Fill-86" fill="#0072C6" fill-rule="nonzero"></path>
                <path d="M285.97254,150.699319 C285.97254,150.699319 285.97254,150.699319 285.97254,150.848796 L285.97254,150.699319 L285.97254,150.699319 Z M250.702648,144.964395 L250.702648,145.108889 L250.702648,145.108889 C250.702648,145.108889 250.702648,145.108889 250.702648,144.964395 L250.702648,144.964395 Z" id="Fill-87" fill="#00ADA3" fill-rule="nonzero"></path>
                <path d="M283.911345,116.528937 L250.702648,139.214523 L250.702648,144.964395 L250.702648,145.108889 L250.702648,150.848796 L285.97254,150.848796 L285.97254,150.848796 L285.97254,150.848796 L285.97254,150.848796 L285.97254,150.848796 L285.97254,150.848796 L285.97254,150.848796 L285.97254,150.848796 L285.97254,150.848796 L285.97254,150.848796 L285.97254,150.848796 L285.97254,150.848796 L285.97254,150.848796 L285.97254,150.699319 L285.97254,150.699319 L285.97254,150.699319 L285.97254,150.699319 L285.97254,150.699319 L285.97254,150.699319 L285.97254,150.699319 L285.97254,150.699319 L285.97254,150.699319 L285.97254,150.554825 L285.97254,150.554825 L285.97254,150.554825 L285.97254,150.554825 L285.97254,150.554825 L285.97254,150.554825 L285.97254,150.405348 L285.97254,150.405348 L285.97254,150.260854 L285.97254,150.260854 C285.97254,150.260854 285.97254,150.260854 285.97254,150.111377 L285.97254,150.111377 C285.827807,146.284773 285.52836,125.666948 283.911345,116.528937 L283.911345,116.528937 Z" id="Fill-88" fill="#005B9E" fill-rule="nonzero"></path>
                <path d="M258.084022,56.1602659 C258.084022,56.1602659 255.873103,59.8373936 255.428923,64.4014166 L259.261848,64.4014166 L258.084022,56.1602659 L258.084022,56.1602659 Z" id="Fill-89" fill="#DD5900" fill-rule="nonzero"></path>
                <path d="M262.960021,68.0885094 L265.904585,66.9126258 L266.937678,69.4138698 L272.257857,69.4138698 L272.257857,78.6814274 L265.904585,78.6814274 L265.904585,73.2404743 C265.759853,71.621143 265.315673,68.825928 262.960021,68.0885094 L262.960021,68.0885094 Z" id="Fill-90" fill="#DD5900" fill-rule="nonzero"></path>
                <path d="M262.076652,59.6928994 C262.076652,60.1363471 262.371108,60.430318 262.665565,60.430318 C263.104754,60.430318 263.39921,60.1363471 263.39921,59.6928994 C263.39921,59.3989285 263.104754,59.1049576 262.665565,59.1049576 C262.371108,59.1049576 262.076652,59.3989285 262.076652,59.6928994 L262.076652,59.6928994 Z" id="Fill-91" fill="#000000" fill-rule="nonzero"></path>
                <path d="M275.202422,50.704365 L275.202422,62.7820853 L275.202422,62.7820853 C274.613509,71.7706197 267.232135,74.4163579 258.084022,74.4163579 L258.084022,73.6839219 L258.084022,66.7681316 L258.084022,58.2230449 L258.084022,50.704365 L275.202422,50.704365 L275.202422,50.704365 Z" id="Fill-92" fill="#DD5900" fill-rule="nonzero"></path>
                <path d="M262.076652,59.6928994 C262.076652,60.1363471 262.371108,60.430318 262.665565,60.430318 C263.104754,60.430318 263.39921,60.1363471 263.39921,59.6928994 C263.39921,59.3989285 263.104754,59.1049576 262.665565,59.1049576 C262.371108,59.1049576 262.076652,59.3989285 262.076652,59.6928994 L262.076652,59.6928994 Z" id="Fill-93" fill="#001F50" fill-rule="nonzero"></path>
                <path d="M279.180079,48.9405396 C277.85752,47.9091501 276.235515,47.7646559 274.763232,48.203121 C274.613509,47.470685 274.169329,46.8827432 273.580416,46.5887723 C272.697047,45.9958479 271.803696,45.8513537 270.770603,45.8513537 C269.443053,45.8513537 268.704417,45.5573828 267.526591,44.9694409 C263.84339,42.906662 257.934298,46.2898188 258.233746,50.704365 L258.233746,50.704365 L258.233746,50.704365 C258.822659,53.3650509 262.810297,54.8398881 265.17094,54.9843823 C266.643222,55.133859 267.526591,54.9843823 268.409961,55.2783532 C268.409961,55.2783532 268.115504,67.5005676 261.328034,67.5005676 C261.328034,67.5005676 260.883854,64.4014166 258.084022,64.4014166 L258.084022,74.4163579 C258.084022,74.4163579 270.031966,77.5055438 270.031966,64.1074457 L270.326423,58.9554809 C270.770603,61.3122307 271.653972,64.6953875 274.463785,66.4741607 L274.613509,66.3246839 C276.96916,65.1338526 276.235515,63.0760562 276.674704,60.8687831 C276.824427,59.2494518 278.74089,57.1916554 279.624259,55.7218008 C280.507628,53.9529928 280.802085,50.4103941 279.180079,48.9405396 L279.180079,48.9405396 Z" id="Fill-94" fill="#001F50" fill-rule="nonzero"></path>
                <polygon id="Fill-95" fill="#FFFFFF" fill-rule="nonzero" points="273.73014 81.9350377 268.998873 109.030187 264.582027 81.9350377"></polygon>
                <polygon id="Fill-96" fill="#EBEBEB" fill-rule="nonzero" points="273.73014 81.9350377 264.582027 81.9350377 268.998873 109.030187"></polygon>
                <polygon id="Fill-97" fill="#68217A" fill-rule="nonzero" points="270.915336 88.2579037 271.504248 85.7566596 269.298321 81.9350377 266.937678 84.8747469 267.970771 88.2579037 266.498489 96.0705544 268.998873 109.030187 271.95841 94.8896882"></polygon>
                <polygon id="Fill-98" fill="#FFFFFF" fill-rule="nonzero" points="269.298321 81.9350377 272.257857 87.08202 273.73014 81.9350377 273.73014 78.2429623"></polygon>
                <polygon id="Fill-99" fill="#FFFFFF" fill-rule="nonzero" points="269.298321 81.9350377 266.199042 87.08202 264.582027 81.9350377 264.582027 78.2429623"></polygon>
                <polygon id="Fill-100" fill="#DD5900" fill-rule="nonzero" points="264.582027 78.2429623 269.298321 81.9350377 273.73014 78.2429623"></polygon>
                <path d="M270.476146,107.849321 L282.583796,97.8343799 L285.97254,78.2429623 C285.97254,78.2429623 315.188608,109.762623 285.97254,113.001286 L280.068439,113.001286 L270.476146,107.849321 L270.476146,107.849321 Z" id="Fill-101" fill="#0072C6" fill-rule="nonzero"></path>
                <path d="M225.184754,110.938507 C224.595841,109.468652 224.740574,107.704827 225.92339,106.528943 L250.113735,78.2429623 L253.662185,80.1662297 L257.050929,82.9614446 L238.165791,104.909612 L247.463627,104.909612 L247.60836,113.14578 L229.017678,113.295257 L229.017678,113.295257 C227.395673,113.295257 225.92339,112.413344 225.184754,110.938507 L225.184754,110.938507 Z" id="Fill-102" fill="#0072C6" fill-rule="nonzero"></path>
                <path d="M251.586017,104.909612 C253.811908,104.909612 255.728371,106.822914 255.728371,109.030187 C255.728371,111.381955 253.811908,113.14578 251.586017,113.14578 L247.16418,113.14578 L247.16418,104.909612 L251.586017,104.909612 L251.586017,104.909612 Z" id="Fill-103" fill="#DD5900" fill-rule="nonzero"></path>
                <polygon id="Fill-104" fill="#FFFFFF" fill-rule="nonzero" points="250.408192 104.306723 267.087402 113.295257 278.151977 93.2753394 261.472767 84.1373283"></polygon>
                <path d="M266.199042,105.642048 C264.137847,104.600693 263.39921,101.954955 264.432303,100.041653 C265.610129,97.978874 268.115504,97.246438 270.18169,98.2778275 L274.169329,100.480118 L270.031966,107.849321 L266.199042,105.642048 L266.199042,105.642048 Z" id="Fill-105" fill="#DD5900" fill-rule="nonzero"></path>
                <path d="M270.031966,56.4542368 C272.257857,56.4542368 273.874872,58.2230449 273.874872,60.2808413 C273.874872,62.3386377 272.257857,64.1074457 270.031966,64.1074457 L270.031966,56.4542368 L270.031966,56.4542368 Z" id="Fill-106" fill="#DD5900" fill-rule="nonzero"></path>
                <path d="M270.031966,58.367539 L270.031966,62.1941435 C271.065059,62.1941435 271.95841,61.3122307 271.95841,60.2808413 C271.95841,59.2494518 271.065059,58.367539 270.031966,58.367539 L270.031966,58.367539 Z" id="Fill-107" fill="#BC4C00" fill-rule="nonzero"></path>
                <g id="Group-115" transform="translate(161.287707, 124.506012)">
                    <g id="Fill-108-Clipped">
                        <g id="path-1"></g>
                        <path d="M15.0572045,15.2964526 C15.0572045,15.2964526 9.14811266,22.2222081 5.46491182,26.6367543 C5.32017899,26.4872776 5.17045538,26.3427834 5.02572256,26.1933067 C7.67583048,28.6945507 11.2242801,30.1644053 15.0572045,30.1644053 C16.3847539,30.1644053 17.7123032,30.0199111 18.890129,29.7259402 C18.7404054,29.7259402 18.4459489,29.8704344 18.1514925,29.8704344 L15.0572045,15.2964526 L15.0572045,15.2964526 Z" id="Fill-108" fill="#FFF100" fill-rule="nonzero" mask="url(#mask-2)"></path>
                    </g>
                    <g id="Fill-110-Clipped">
                        <g id="path-1"></g>
                        <path d="M15.0572045,15.2964526 L15.0572045,0.423517418 C6.94218479,0.423517418 0.149723611,7.05530193 0.149723611,15.2964526 L0.149723611,16.0288886 C0.149723611,16.1783654 0.149723611,16.3228596 0.309428797,16.3228596 L0.309428797,16.9108014 L0.309428797,17.2097549 C0.309428797,17.354249 0.309428797,17.5037258 0.454161621,17.6482199 L0.454161621,17.9421909 C0.454161621,18.0916676 0.454161621,18.3856385 0.603885233,18.5301327 L0.603885233,18.8241036 C0.603885233,18.9735803 0.748618057,19.1180745 0.748618057,19.2775164 L0.748618057,19.5714873 C0.898341669,19.720964 0.898341669,19.8654582 0.898341669,20.0149349 C1.04307449,20.1644117 1.04307449,20.1644117 1.04307449,20.3089058 C1.04307449,20.4583826 1.1927981,20.6028768 1.1927981,20.7523535 C1.34252172,20.8968477 1.34252172,20.8968477 1.34252172,21.0463244 C1.48725454,21.1908186 1.48725454,21.4847895 1.63697815,21.6342662 L1.63697815,21.6342662 C1.93143459,22.2222081 2.07616741,22.6656557 2.37062385,23.1041208 L2.52034746,23.1041208 C2.52034746,23.3980917 2.66508028,23.5475685 2.8148039,23.6920626 L2.95953672,23.8415394 C2.95953672,23.9860335 3.10926033,24.1355103 3.25399316,24.4294812 L3.40371677,24.4294812 C3.54844959,24.7234521 3.6981732,24.8679463 3.84290603,25.017423 L3.84290603,25.017423 C3.99262964,25.3113939 4.14235325,25.4608707 4.28708608,25.6053649 L4.43680969,25.6053649 C4.58154251,25.7548416 4.73126612,26.0488125 4.87599895,26.1933067 L5.02572256,26.1933067 C5.17045538,26.3427834 5.32017899,26.4872776 5.46491182,26.6367543 C9.14811266,22.2222081 15.0572045,15.2964526 15.0572045,15.2964526 L15.0572045,15.2964526 Z" id="Fill-110" fill="#BAD80A" fill-rule="nonzero" mask="url(#mask-4)"></path>
                    </g>
                    <g id="Fill-111-Clipped">
                        <g id="path-1"></g>
                        <path d="M26.8604159,6.01394734 L26.8604159,6.01394734 C25.9770466,4.98255786 24.9439537,3.95615094 23.9108608,3.21873238 L23.7661279,3.21873238 C23.6164043,3.06925564 23.4716715,2.92476146 23.1772151,2.77528473 L23.1772151,2.63079055 C22.8777678,2.63079055 22.733035,2.48131382 22.5833114,2.33681964 L22.4385786,2.33681964 C22.1441221,2.1873429 21.9943985,2.04284872 21.8496657,1.89337199 L21.6999421,1.89337199 C21.2607528,1.59940107 20.67184,1.4549069 20.2126875,1.30543016 L20.0679547,1.30543016 C19.9182311,1.16093598 19.6237747,1.16093598 19.4790419,1.01145925 L19.1845854,1.01145925 C19.0348618,0.866965068 18.890129,0.866965068 18.7404054,0.866965068 C18.5956725,0.717488332 18.4459489,0.717488332 18.4459489,0.717488332 C18.3012161,0.717488332 18.0067597,0.717488332 17.8570361,0.568011596 L17.5625796,0.568011596 L17.1183996,0.568011596 C16.9736668,0.568011596 16.8239431,0.423517418 16.8239431,0.423517418 L16.2350303,0.423517418 L15.9405738,0.423517418 L15.0572045,0.423517418 L15.0572045,15.2964526 L26.8604159,6.01394734 L26.8604159,6.01394734 Z" id="Fill-111" fill="#00BCF2" fill-rule="nonzero" mask="url(#mask-6)"></path>
                    </g>
                    <g id="Fill-112-Clipped">
                        <g id="path-1"></g>
                        <path d="M15.0572045,15.2964526 L29.6602474,11.6143424 C29.2160674,10.2939645 28.7768781,9.11808089 28.1829745,7.93721467 L28.1829745,7.93721467 C28.0382416,7.7927205 27.888518,7.49874958 27.7437852,7.34927285 L27.7437852,7.34927285 C27.5940616,7.05530193 27.4493288,6.91080775 27.2996052,6.61683684 L27.2996052,6.61683684 C27.1548723,6.4673601 27.0051487,6.16342407 26.8604159,6.01394734 L26.8604159,6.01394734 L15.0572045,15.2964526 L15.0572045,15.2964526 Z" id="Fill-112" fill="#68217A" fill-rule="nonzero" mask="url(#mask-8)"></path>
                    </g>
                    <g id="Fill-113-Clipped">
                        <g id="path-1"></g>
                        <path d="M15.0572045,15.2964526 L21.4054857,28.8440275 C21.9943985,28.5500565 22.5833114,28.2560856 23.1772151,27.812638 L23.1772151,27.812638 C23.7661279,27.3691903 24.3550408,27.0752194 24.7942301,26.6367543 L24.9439537,26.4872776 C25.2384101,26.1933067 25.6775994,25.8993358 25.9770466,25.4608707 L25.9770466,25.4608707 C26.1217794,25.3113939 26.271503,25.1619172 26.271503,25.1619172 L26.4162359,25.017423 C26.7106923,24.7234521 27.0051487,24.2800045 27.2996052,23.9860335 C27.2996052,23.8415394 27.2996052,23.8415394 27.4493288,23.8415394 C27.4493288,23.6920626 27.4493288,23.5475685 27.5940616,23.5475685 C27.5940616,23.3980917 27.7437852,23.2535975 27.7437852,23.2535975 C27.888518,23.1041208 27.888518,22.9596266 28.0382416,22.8101499 C28.0382416,22.6656557 28.1829745,22.516179 28.1829745,22.516179 C28.1829745,22.3667022 28.3326981,22.3667022 28.3326981,22.2222081 C28.3326981,22.0727313 28.4774309,22.0727313 28.4774309,21.9282371 C28.4774309,21.7787604 28.6271545,21.7787604 28.6271545,21.6342662 C28.6271545,21.4847895 28.7768781,21.3402953 28.7768781,21.1908186 C28.921611,21.0463244 28.921611,21.0463244 28.921611,20.8968477 C28.921611,20.7523535 29.0713346,20.6028768 29.0713346,20.4583826 L29.2160674,20.3089058 C29.2160674,20.1644117 29.2160674,20.0149349 29.365791,19.8654582 L29.365791,19.720964 C29.5105238,19.4269931 29.5105238,19.2775164 29.5105238,18.9735803 C29.5105238,18.9735803 29.6602474,18.9735803 29.6602474,18.8241036 L29.6602474,18.3856385 L29.8049803,18.2361618 L29.8049803,17.6482199 L29.8049803,17.5037258 C29.9547039,17.354249 29.9547039,17.0602781 29.9547039,16.9108014 L29.9547039,16.6168305 L29.9547039,16.1783654 L29.9547039,16.0288886 C30.0994367,15.7349177 30.0994367,15.4409468 30.0994367,15.2964526 C30.0994367,15.0024817 30.0994367,14.7085108 29.9547039,14.4145399 L29.9547039,14.1155864 L29.9547039,13.5276446 L29.9547039,13.3831504 C29.9547039,13.0891795 29.8049803,12.9397028 29.8049803,12.6457319 L29.8049803,12.5012377 C29.6602474,12.2072668 29.6602474,11.9132958 29.6602474,11.6143424 L15.0572045,15.2964526 L15.0572045,15.2964526 Z" id="Fill-113" fill="#B4009E" fill-rule="nonzero" mask="url(#mask-10)"></path>
                    </g>
                    <g id="Fill-114-Clipped">
                        <g id="path-1"></g>
                        <path d="M19.7734983,29.4319693 L19.9182311,29.4319693 C20.0679547,29.2824926 20.3723927,29.2824926 20.5221163,29.1379984 L20.67184,29.1379984 C20.8165728,28.9885216 21.1110292,28.9885216 21.4054857,28.8440275 L15.0572045,15.2964526 L18.1514925,29.8704344 C18.4459489,29.8704344 18.7404054,29.7259402 18.890129,29.7259402 L19.0348618,29.5764635 C19.3293182,29.5764635 19.4790419,29.5764635 19.7734983,29.4319693 L19.7734983,29.4319693 Z" id="Fill-114" fill="#F472D0" fill-rule="nonzero" mask="url(#mask-12)"></path>
                    </g>
                </g>
                <g id="Group-123" transform="translate(193.228744, 124.506012)">
                    <g id="Fill-116-Clipped">
                        <g id="path-3"></g>
                        <path d="M15.2767992,15.2964526 C15.2767992,15.2964526 21.185891,22.3667022 24.8690919,26.7812485 C24.724359,26.9307252 24.4299026,27.0752194 24.280179,27.2246962 C27.2297341,25.017423 29.3009108,21.7787604 30.0395472,17.9421909 C30.1892709,16.6168305 30.3340037,15.2964526 30.1892709,14.1155864 L30.1892709,14.853005 L15.2767992,15.2964526 L15.2767992,15.2964526 Z" id="Fill-116" fill="#E81123" fill-rule="nonzero" mask="url(#mask-14)"></path>
                    </g>
                    <g id="Fill-118-Clipped">
                        <g id="path-3"></g>
                        <path d="M15.2767992,15.2964526 L0.678747039,12.6457319 C-0.798525928,20.7523535 4.50668071,28.5500565 12.6266912,29.8704344 C12.9211477,30.0199111 13.2156041,30.0199111 13.5100605,30.0199111 L13.6597842,30.0199111 C13.9542406,30.1644053 14.0989734,30.1644053 14.248697,30.1644053 L14.5431535,30.1644053 L15.1320663,30.1644053 L15.4265228,30.1644053 L15.8707028,30.1644053 L16.1651593,30.1644053 L16.6043485,30.1644053 C16.7540721,30.1644053 16.8988049,30.1644053 16.8988049,30.0199111 L17.4877178,30.0199111 L17.7821743,30.0199111 C17.9318979,30.0199111 18.0766307,29.8704344 18.2263543,29.8704344 L18.5307923,29.8704344 C18.6805159,29.7259402 18.9749724,29.7259402 19.2694288,29.7259402 L19.2694288,29.7259402 C19.7136088,29.5764635 20.3025217,29.2824926 20.741711,29.1379984 L20.8914346,29.1379984 C21.0361674,28.9885216 21.185891,28.9885216 21.4803475,28.8440275 L21.6300711,28.8440275 C21.7748039,28.6945507 21.9245275,28.5500565 22.2189839,28.5500565 L22.3637168,28.4005798 C22.5134404,28.4005798 22.6581732,28.2560856 22.8078968,28.1066089 L22.9526296,28.1066089 C23.1023533,27.9621147 23.3968097,27.812638 23.5415425,27.6631612 L23.6912661,27.6631612 C23.8359989,27.5186671 23.9857226,27.3691903 24.1354462,27.2246962 L24.280179,27.2246962 C24.4299026,27.0752194 24.724359,26.9307252 24.8690919,26.7812485 C21.185891,22.3667022 15.2767992,15.2964526 15.2767992,15.2964526 L15.2767992,15.2964526 Z" id="Fill-118" fill="#FFF100" fill-rule="nonzero" mask="url(#mask-16)"></path>
                    </g>
                    <g id="Fill-119-Clipped">
                        <g id="path-3"></g>
                        <path d="M8.19487233,2.1873429 L8.19487233,2.1873429 C7.0120558,2.77528473 5.98395367,3.66218003 4.95086075,4.54409277 L4.95086075,4.54409277 C4.80612793,4.68858695 4.50668071,4.98255786 4.36194788,5.1320346 L4.36194788,5.1320346 C4.21222427,5.42600551 4.06749145,5.57049969 3.91776783,5.71997643 L3.77303501,5.8644706 C3.6233114,6.01394734 3.47857857,6.16342407 3.32885496,6.32286593 L3.32885496,6.4673601 C3.03439853,6.91080775 2.59520927,7.34927285 2.44548565,7.7927205 L2.30075283,7.93721467 C2.30075283,8.08669141 2.15102922,8.23118559 2.00130561,8.5251565 C2.00130561,8.5251565 2.00130561,8.67463324 1.85657278,8.67463324 C1.85657278,8.81912742 1.70684917,9.11808089 1.70684917,9.26257506 C1.56211635,9.26257506 1.56211635,9.4120518 1.56211635,9.4120518 C1.56211635,9.70602271 1.41239273,9.85051689 1.41239273,9.99999363 C1.26765991,9.99999363 1.26765991,10.1444878 1.26765991,10.2939645 C1.26765991,10.4384587 1.1179363,10.5879355 1.1179363,10.7324296 C1.1179363,10.8819064 0.973203475,10.8819064 0.973203475,11.0264005 C0.973203475,11.1758773 0.973203475,11.3203715 0.823479863,11.6143424 L0.823479863,11.7638191 C0.678747039,12.05779 0.678747039,12.3517609 0.678747039,12.6457319 L15.2767992,15.2964526 L8.19487233,2.1873429 L8.19487233,2.1873429 Z" id="Fill-119" fill="#68217A" fill-rule="nonzero" mask="url(#mask-18)"></path>
                    </g>
                    <g id="Fill-120-Clipped">
                        <g id="path-3"></g>
                        <path d="M15.2767992,15.2964526 L14.248697,0.423517418 C12.9211477,0.568011596 11.5935983,0.717488332 10.4157726,1.16093598 L10.4157726,1.16093598 C10.1213161,1.30543016 9.97159252,1.30543016 9.67713609,1.4549069 L9.67713609,1.4549069 C9.38267965,1.59940107 9.23794683,1.74887781 8.94349039,1.74887781 L8.94349039,1.74887781 C8.79376678,1.89337199 8.49931034,2.04284872 8.19487233,2.1873429 L8.19487233,2.1873429 L15.2767992,15.2964526 L15.2767992,15.2964526 Z" id="Fill-120" fill="#68217A" fill-rule="nonzero" mask="url(#mask-20)"></path>
                    </g>
                    <g id="Fill-121-Clipped">
                        <g id="path-3"></g>
                        <path d="M15.2767992,15.2964526 L29.7450908,11.6143424 C29.600358,10.8819064 29.3009108,10.1444878 29.1561779,9.55654598 L29.1561779,9.55654598 C28.8617215,8.96860415 28.5672651,8.38066232 28.1131034,7.7927205 L28.1131034,7.64324376 C27.818647,7.20477867 27.6689234,6.91080775 27.374467,6.4673601 L27.2297341,6.32286593 C27.2297341,6.32286593 27.0800105,6.16342407 26.9352777,6.01394734 L26.9352777,5.8644706 C26.6408213,5.57049969 26.341374,5.27652878 26.0469176,4.83806368 C25.9021848,4.83806368 25.9021848,4.83806368 25.9021848,4.68858695 C25.7524612,4.68858695 25.7524612,4.54409277 25.6077283,4.54409277 C25.4580047,4.39461603 25.4580047,4.39461603 25.4580047,4.25012186 C25.3132719,4.25012186 25.1635483,4.10064512 25.0188155,3.95615094 C24.8690919,3.80667421 24.8690919,3.80667421 24.724359,3.66218003 C24.5746354,3.66218003 24.5746354,3.51270329 24.4299026,3.51270329 L24.280179,3.36322656 C24.1354462,3.21873238 23.9857226,3.21873238 23.9857226,3.06925564 C23.8359989,3.06925564 23.6912661,2.92476146 23.5415425,2.92476146 C23.5415425,2.77528473 23.3968097,2.77528473 23.3968097,2.77528473 C23.2470861,2.63079055 23.1023533,2.48131382 22.9526296,2.48131382 C22.8078968,2.48131382 22.8078968,2.33681964 22.6581732,2.33681964 C22.6581732,2.33681964 22.5134404,2.1873429 22.3637168,2.1873429 L22.2189839,2.04284872 C21.9245275,1.89337199 21.7748039,1.89337199 21.6300711,1.74887781 L21.4803475,1.74887781 C21.3356146,1.59940107 21.185891,1.59940107 21.0361674,1.4549069 L20.741711,1.4549069 C20.5969782,1.30543016 20.4472545,1.30543016 20.3025217,1.16093598 L20.1527981,1.16093598 C19.8583417,1.16093598 19.7136088,1.01145925 19.5638852,1.01145925 C19.4191524,1.01145925 19.4191524,1.01145925 19.2694288,0.866965068 L18.8302395,0.866965068 C18.8302395,0.717488332 18.6805159,0.717488332 18.6805159,0.717488332 C18.3710871,0.717488332 18.2263543,0.717488332 17.9318979,0.568011596 C17.6374414,0.568011596 17.342985,0.568011596 17.0485286,0.423517418 L16.8988049,0.423517418 L16.1651593,0.423517418 L16.0154356,0.423517418 L15.2767992,0.423517418 L15.1320663,0.423517418 L14.248697,0.423517418 L15.2767992,15.2964526 L15.2767992,15.2964526 Z" id="Fill-121" fill="#B4009E" fill-rule="nonzero" mask="url(#mask-22)"></path>
                    </g>
                    <g id="Fill-122-Clipped">
                        <g id="path-3"></g>
                        <path d="M30.0395472,13.2336737 L30.0395472,13.0891795 C30.0395472,12.9397028 30.0395472,12.6457319 29.8948144,12.3517609 L29.8948144,12.3517609 C29.8948144,12.05779 29.8948144,11.7638191 29.7450908,11.6143424 L15.2767992,15.2964526 L30.1892709,14.853005 L30.1892709,14.1155864 L30.1892709,13.9710922 C30.1892709,13.6771213 30.1892709,13.5276446 30.0395472,13.2336737 L30.0395472,13.2336737 Z" id="Fill-122" fill="#F472D0" fill-rule="nonzero" mask="url(#mask-24)"></path>
                    </g>
                </g>
            </g>
        </g>
    </g>
</svg>